# AST/ASF file generated using VICON BodyLanguage
# -----------------------------------------------
:version 1.10
:name VICON
:units
  mass 1.0
  length 0.45
  angle deg
:documentation
   .ast/.asf automatically generated from VICON data using
   VICON BodyBuilder and BodyLanguage model FoxedUp or BRILLIANT.MOD
:root
   order TX TY TZ RX RY RZ
   axis XYZ
   position 0 0 0  
   orientation 0 0 0 
:bonedata
  begin
     id 1 
     name lhipjoint
     direction 0.588788 -0.725889 0.355548 
     length 2.37778 
     axis 0 0 0  XYZ
  end
  begin
     id 2 
     name lfemur
     direction 0.34202 -0.939693 0  
     length 6.86393  
     axis 0 0 20  XYZ
    dof rx ry rz
    limits (-160.0 20.0)
           (-70.0 70.0)
           (-60.0 70.0)
  end
  begin
     id 3 
     name ltibia
     direction 0.34202 -0.939693 0   
     length 7.32851   
     axis 0 0 20   XYZ
    dof rx
    limits (-10.0 170.0)
  end
  begin
     id 4 
     name lfoot
     direction 0.0626533 -0.172138 0.983078   
     length 1.98929   
     axis -90 7.62852e-016 20   XYZ
    dof rx rz
    limits (-45.0 90.0)
           (-70.0 20.0)
  end
  begin
     id 5 
     name ltoes
     direction 1.53647e-011 -4.21734e-011 1   
     length 1.00479   
     axis -90 7.62852e-016 20   XYZ
    dof rx
    limits (-90.0 20.0)
  end
  begin
     id 6 
     name rhipjoint
     direction -0.59141 -0.724168 0.354705   
     length 2.38343  
     axis 0 0 0  XYZ 
  end
  begin
     id 7 
     name rfemur
     direction -0.34202 -0.939693 0   
     length 6.95589   
     axis 0 0 -20   XYZ
    dof rx ry rz
    limits (-160.0 20.0)
           (-70.0 70.0)
           (-70.0 60.0)
  end
  begin
     id 8 
     name rtibia
     direction -0.34202 -0.939693 0   
     length 7.32327   
     axis 0 0 -20   XYZ
    dof rx
    limits (-10.0 170.0)
 end
 begin
     id 9 
     name rfoot
     direction -0.0660461 -0.18146 0.981178   
     length 1.85272  
     axis -90 -7.62852e-016 -20   XYZ
    dof rx rz
    limits (-45.0 90.0)
           (-20.0 70.0)
  end
  begin
     id 10 
     name rtoes
     direction -1.53586e-011 -4.21988e-011 1   
     length 0.93746   
     axis -90 -7.62852e-016 -20   XYZ
    dof rx
    limits (-90.0 20.0)
  end
  begin
     id 11 
     name lowerback
     direction -0.0107982 0.991059 0.13299   
     length 1.98691   
     axis 0 0 0   XYZ
    dof rx ry rz
    limits (-20.0 45.0)
           (-30.0 30.0)
           (-30.0 30.0)
  end
  begin
     id 12 
     name upperback
     direction 0.0076296 0.999916 0.0104576   
     length 1.99501   
     axis 0 0 0   XYZ
    dof rx ry rz
    limits (-20.0 45.0)
           (-30.0 30.0)
           (-30.0 30.0)
  end
  begin
     id 13 
     name thorax
     direction 0.01176 0.998615 -0.0512909   
     length 2.03144   
     axis 0 0 0   XYZ
    dof rx ry rz
    limits (-20.0 45.0)
           (-30.0 30.0)
           (-30.0 30.0)
  end
  begin
     id 14 
     name lowerneck
     direction -0.0171909 0.999644 0.0204011   
     length 1.71818   
     axis 0 0 0   XYZ
    dof rx ry rz
    limits (-20.0 45.0)
           (-30.0 30.0)
           (-30.0 30.0)
  end
  begin
     id 15 
     name upperneck
     direction 0.0250902 0.997482 -0.0663316   
     length 1.66199   
     axis 0 0 0   XYZ
    dof rx ry rz
    limits (-20.0 45.0)
           (-30.0 30.0)
           (-30.0 30.0)
  end
  begin
     id 16
     name head
     direction 0.00881535 0.99956 -0.0283365  
     length 1.81545  
     axis 0 0 0   XYZ
    dof rx ry rz
    limits (-20.0 45.0)
           (-30.0 30.0)
           (-30.0 30.0)
  end
  begin
     id 17 
     name lclavicle
     direction 0.840411 0.486876 -0.238035  
     length 3.30409  
     axis 0 0 0   XYZ
    dof ry rz
    limits (-20.0 10.0)
           (0.0 20.0)
  end
  begin
     id 18 
     name lhumerus
     direction 1 -4.48977e-011 -5.16239e-027   
     length 4.62672   
     axis 180 -30 -90   XYZ
    dof rx ry rz
    limits (-60.0 90.0)
           (-90.0 90.0)
           (-90.0 90.0)
  end
  begin
     id 19
     name lradius
     direction 1 -4.48977e-011 -8.71171e-027   
     length 3.11018   
     axis 180 -30 -90   XYZ
    dof rx
    limits (-10.0 170.0)
  end
  begin
     id 20
     name lwrist
     direction 1 -4.48912e-011 -1.03764e-026   
     length 1.55509   
     axis 9.09556e-015 90 90   XYZ
    dof ry
    limits (-180.0 0.0)
 end
  begin
     id 21 
     name lhand
     direction 1 -4.49072e-011 -2.07528e-026   
     length 0.743834   
     axis 1.3242e-014 90 90   XYZ
    dof rx rz
    limits (-90.0 90.0)
           (-45.0 45.0)
  end
  begin
     id 22 
     name lfingers
     direction 1 -4.48909e-011 -4.15056e-026   
     length 0.599698   
     axis 2.64841e-014 90 90   XYZ
    dof rx
    limits (0.0 90.0)
  end
  begin
     id 23
     name lthumb
     direction 0.707107 -6.35013e-011 0.707107   
     length 0.86105   
     axis -90 45 2.85299e-015   XYZ
    dof rx rz
    limits (-45.0 45.0)
           (-45.0 45.0)
  end
  begin
     id 24 
     name rclavicle
     direction -0.835208 0.500237 -0.228452   
     length 3.2716  
     axis 0 0 0   XYZ 
    dof ry rz
    limits (-10.0 20.0)
           (-20.0 0.0)
  end
  begin
     id 25 
     name rhumerus
     direction -1 -4.48978e-011 -5.1953e-028  
     length 4.55919   
     axis 180 30 90   XYZ
    dof rx ry rz
    limits (-90.0 60.0)
           (-90.0 90.0)
           (-90.0 90.0)
  end
  begin
     id 26 
     name rradius
     direction -1 -4.48961e-011 -5.99546e-027   
     length 3.22748   
     axis 180 30 90   XYZ
    dof rx
    limits (-10.0 170.0)
  end
  begin
     id 27 
     name rwrist
     direction -1 -4.48986e-011 -1.03764e-026   
     length 1.61374   
     axis 9.09556e-015 -90 -90   XYZ
    dof ry
    limits (-180.0 0.0)
  end
  begin
     id 28
     name rhand
     direction -1 -4.4899e-011 -2.07528e-026   
     length 0.700882   
     axis 1.3242e-014 -90 -90   XYZ
    dof rx rz
    limits (-90.0 90.0)
           (-45.0 45.0)
  end
  begin
     id 29
     name rfingers
     direction -1 -4.48991e-011 -4.15056e-026   
     length 0.565069   
     axis 2.64841e-014 -90 -90   XYZ
    dof rx
    limits (0.0 90.0)
  end
  begin
     id 30
     name rthumb
     direction -0.707107 -6.34804e-011 0.707107   
     length 0.811329   
     axis -90 -45 -2.85299e-015   XYZ
    dof rx rz
    limits (-45.0 45.0)
           (-45.0 45.0)
  end
:hierarchy
  begin
    root lhipjoint rhipjoint lowerback
    lhipjoint lfemur
    lfemur ltibia
    ltibia lfoot
    lfoot ltoes
    rhipjoint rfemur
    rfemur rtibia
    rtibia rfoot
    rfoot rtoes
    lowerback upperback
    upperback thorax
    thorax lowerneck lclavicle rclavicle
    lowerneck upperneck
    upperneck head
    lclavicle lhumerus
    lhumerus lradius
    lradius lwrist
    lwrist lhand lthumb
    lhand lfingers
    rclavicle rhumerus
    rhumerus rradius
    rradius rwrist
    rwrist rhand rthumb
    rhand rfingers
  end

#!OML:ASF F:\VICON\USERDATA\INSTALL\SteveWalk\SteveWalk.ASF
:FULLY-SPECIFIED
:DEGREES
32
root -0.11826 16.2345 -36.3109 16.8303 6.97344 3.05859
lowerback -12.4408 -3.50926 -4.89078
upperback -4.7482 -4.08212 0.589961
thorax 2.35232 -1.99624 2.77201
lowerneck -2.89698 -3.2722 -0.955604
upperneck 8.08774 -4.46523 1.63471
head 3.15941 -2.18754 0.530937
rclavicle 2.61464e-014 8.64713e-015
rhumerus -91.5864 -36.2236 -2.77855
rradius 11.1213
rwrist 52.2656
rhand -15.0501 -36.8529
rfingers 7.12502
rthumb 11.1165 -66.5385
lclavicle 2.61464e-014 8.64713e-015
lhumerus -18.2305 -3.6996 82.1038
lradius 38.6237
lwrist 9.77095
lhand -21.9209 -15.9407
lfingers 7.12502
lthumb 4.48511 13.9919
rfemur -49.5566 -7.80908 21.0857
rtibia 23.6231
rfoot -10.7175 -3.26028
rtoes -11.017
lfemur -9.11321 4.31005 -24.3187
ltibia 22.5846
lfoot -25.9165 -10.4863
ltoes -4.08123
33
root -0.128864 16.227 -36.0764 16.3817 8.39979 3.66407
lowerback -12.2529 -4.07343 -5.36633
upperback -4.35687 -4.77397 0.571266
thorax 2.75387 -2.35388 2.90424
lowerneck -2.96703 -3.24843 -0.850257
upperneck 7.81859 -4.42027 1.45775
head 3.07155 -2.16919 0.458224
rclavicle 3.16099e-014 1.96797e-014
rhumerus -92.5951 -35.7488 -1.09699
rradius 11.1633
rwrist 52.7956
rhand -15.4039 -37.293
rfingers 7.12502
rthumb 10.7752 -66.9966
lclavicle 3.16099e-014 1.96797e-014
lhumerus -17.2911 -4.22838 81.8213
lradius 39.6402
lwrist 10.4137
lhand -21.9607 -16.1052
lfingers 7.12502
lthumb 4.44672 13.8282
rfemur -48.8114 -8.09039 19.8205
rtibia 21.7016
rfoot -11.4807 -3.36497
rtoes -8.43574
lfemur -6.85731 3.77039 -24.2228
ltibia 20.9992
lfoot -25.553 -11.2405
ltoes -5.43964
34
root -0.136489 16.1981 -35.8544 16.4002 9.22272 4.20319
lowerback -12.411 -4.38497 -5.79405
upperback -4.15907 -5.11592 0.492614
thorax 3.10601 -2.53409 2.9847
lowerneck -2.92441 -3.24993 -0.676664
upperneck 7.47934 -4.41904 1.35676
head 2.94011 -2.16885 0.39953
rclavicle 2.04904e-014 2.28602e-015
rhumerus -94.0306 -35.2734 1.14206
rradius 11.2064
rwrist 53.4387
rhand -15.5578 -37.4172
rfingers 7.12502
rthumb 10.6267 -67.1285
lclavicle 2.04904e-014 2.28602e-015
lhumerus -16.3949 -4.8226 81.5803
lradius 40.5137
lwrist 10.9464
lhand -21.8185 -16.52
lfingers 7.12502
lthumb 4.58408 13.4104
rfemur -48.9822 -8.51199 19.0951
rtibia 20.0796
rfoot -10.7992 -3.09766
rtoes -13.9956
lfemur -5.25673 3.29065 -24.3333
ltibia 19.5631
lfoot -24.9845 -11.5634
ltoes -6.84733
35
root -0.133429 16.1671 -35.628 16.5516 9.61592 4.59214
lowerback -12.5593 -4.5568 -6.01904
upperback -4.14489 -5.30408 0.486998
thorax 3.23777 -2.63018 3.06055
lowerneck -2.97048 -3.23415 -0.66318
upperneck 7.45709 -4.38834 1.22733
head 2.93676 -2.15745 0.35618
rclavicle 1.7052e-014 5.46658e-015
rhumerus -95.1225 -34.6978 3.10329
rradius 11.2644
rwrist 53.9366
rhand -15.6749 -37.6433
rfingers 7.12502
rthumb 10.5138 -67.3604
lclavicle 1.7052e-014 5.46658e-015
lhumerus -15.9799 -5.13315 81.5161
lradius 41.5763
lwrist 11.2037
lhand -22.1694 -16.9007
lfingers 7.12502
lthumb 4.24515 13.0367
rfemur -49.4207 -9.70142 19.4123
rtibia 18.8034
rfoot -10.9134 -1.26946
rtoes -17.2974
lfemur -3.79326 2.74155 -24.5021
ltibia 18.1892
lfoot -24.4268 -11.4317
ltoes -8.59525
36
root -0.130696 16.1364 -35.4032 16.5661 9.66016 4.65323
lowerback -12.2829 -4.61227 -5.93803
upperback -4.31422 -5.41624 0.605091
thorax 2.92543 -2.67571 3.14736
lowerneck -2.98942 -3.13517 -0.57473
upperneck 7.50853 -4.23504 0.876286
head 2.94424 -2.09054 0.233168
rclavicle -6.59033e-014 -8.74653e-015
rhumerus -96.0705 -33.9502 5.27731
rradius 11.2936
rwrist 54.8321
rhand -15.6887 -38.0692
rfingers 7.12502
rthumb 10.5005 -67.7869
lclavicle -6.59033e-014 -8.74653e-015
lhumerus -16.0731 -5.10896 81.4399
lradius 42.8214
lwrist 11.375
lhand -22.7734 -17.2195
lfingers 7.12502
lthumb 3.66189 12.7288
rfemur -49.9954 -10.4421 19.9503
rtibia 18.1559
rfoot -11.3528 1.03164
rtoes -17.4576
lfemur -2.19123 2.47769 -24.4022
ltibia 16.7804
lfoot -23.8796 -11.1344
ltoes -10.9549
37
root -0.134224 16.1138 -35.1668 16.5231 10.1822 4.71661
lowerback -12.6607 -4.85889 -5.8034
upperback -4.1442 -5.73015 0.665793
thorax 3.33474 -2.8435 3.04586
lowerneck -2.39745 -3.0105 -0.281748
upperneck 6.5666 -4.05397 0.578183
head 2.501 -2.0075 0.113807
rclavicle 2.60408e-014 3.57812e-015
rhumerus -97.1401 -33.4657 7.47659
rradius 11.3367
rwrist 55.6766
rhand -15.5737 -38.2421
rfingers 7.12502
rthumb 10.6113 -67.9542
lclavicle 2.60408e-014 3.57812e-015
lhumerus -15.7461 -4.934 81.1305
lradius 43.7809
lwrist 11.5044
lhand -22.93 -17.609
lfingers 7.12502
lthumb 3.51067 12.3419
rfemur -49.8176 -10.9818 20.0674
rtibia 16.8774
rfoot -11.414 2.59695
rtoes -16.2186
lfemur -1.17634 2.16073 -24.0363
ltibia 16.736
lfoot -23.8278 -11.3114
ltoes -12.6966
